<svg width="139" height="70" fill="none" xmlns="http://www.w3.org/2000/svg"><path d="M139 0H0l59.93 65.65a12.7 12.7 0 0 0 19.14 0L139 0Z" fill="#81B3D3"/><path d="M36.8.5 69 38.2 101.09.7 36.8.5Z" fill="#23A9E1"/><path d="M61.27 14.63h17.35c-1.3-.8-4.41-4.58-6.01-3.19-.1.1-4.92-5.67-8.03-2.88-2.7 2.48-4-.3-7.02 1.59-3.6 2.39 2 3.68 3.71 4.47Zm26.78-3.49-9.83.1c3.91-4.47 5.62-3.98 9.83-.1Z" fill="#fff"/><path d="M97.88 3.58V1.2h2.1l-2.1 2.4Zm-49.34 9.35c.1.1 2.4-2.38 6.11-4.87 3.41-2.29 8.63-4.88 14.45-4.88 5.81 0 11.13 2.69 14.54 4.98 3.7 2.39 6.01 4.77 6.11 4.87l-2.5 2.99c-4.52.6-7.73 3.88-12.14 3.18-2.2-.4-2.3-1.59-2.9-2.88-.5-1-1.31-.8-2.31-1.2-.9-.4-1.5-1.1-3.41-.7-1.6.4-1.8 2.9-3.91 2.8-1.1-.1-1.2-1.6-2.81-3.59-4.11-4.87-7.92-4.18-10.53.3L68.89 37.1 48.54 12.93ZM40.1 1.2v1.9l-1.6-1.9h1.6Zm54.06 0h3.2v2.99l-3.2 3.78V1.19Zm-4.12 11.35V1.19h3.51v7.37l-3.5 3.98c.1 0 0 0 0 0Zm-.5-10.35v9.85c-1.1-1.1-2.3-2.1-3.6-2.99l3.6-6.86Zm-4.1-.3v6.77c-.51-.3-.91-.7-1.51-1-.7-.4-1.4-.9-2.2-1.3l3.7-4.47Zm-4.42-.2v4.28c-1-.5-2.1-1-3.11-1.5l3.1-2.78Zm.6-.5h3.71l-3.7 4.58V1.19Zm4.31 0h3.61l-3.6 7.07V1.19Zm-8.82 0h3.9l-3.5 3.09c-.1 0-.2-.1-.3-.1l-.1-2.99Zm-.5.4v2.39c-1-.4-2-.7-3.11-.9l3.1-1.49Zm-4.22 0v1.3l-2.2-.3 2.2-1Zm-6.81 0 2.2 1c-.8 0-1.5.1-2.2.3v-1.3Zm-4.12 0 3.11 1.5c-1.1.2-2.1.5-3.1.89V1.59Zm3.61 1.2-3.3-1.6h3.3v1.6Zm3.51-.4-2.8-1.3h2.8v1.3Zm.7-1.2h2.91l-2.9 1.3v-1.3Zm3.72 0h3.2l-3.2 1.6v-1.6ZM60.57 4.28l-3.5-3.09h3.9v2.99l-.4.1Zm-3.6-2.59 3.1 2.69c-1.1.4-2.1.9-3.1 1.49V1.69Zm-4.32.2 3.6 4.48c-1.3.7-2.5 1.49-3.6 2.39V1.89Zm-4.21.3 3.6 6.96c-1.3 1-2.5 2-3.6 3.19V2.19Zm3.7 5.97-3.6-7.07h3.6v7.07Zm4.32-2.49L52.75 1.1h3.7v4.58Zm-12.64 1.8-3.2-3.79V1.2h3.2v6.27Zm.6-6.28h3.52v11.15l-3.51-4.18V1.19ZM69.3 0H36.1v14.53L69 54.23l.2-.3 33.09-39V0h-33Z" fill="#491213"/><path d="m66.39 45.77 2.6-4.18 2.61 4.18-2.6 4.17-2.61-4.17Z" fill="#23A9E1"/><path d="M74.41 30.44c-3.4-1.99-2.6-3.48.2-4.87 1.5-.7 4.81-3.38 6.12-2.49l-6.32 7.36Zm-2.3 2.5c-2.01-.1-4.32-.4-6.32.1 1.2.29 4.2 1.18 1.4 1.88 1 1.4 2.6 1.3 3.61.1-.4-.2-.7-.5-1-.7 1.1-.3 2.1-.9 2.3-1.39Zm1.2-1.6c-.9-.8-1.9-.8-2.71 0-1.2-2.09-5.42-1.4-7.42-1.7 1.1 2.6 9.63 3.1 10.13 1.7Zm-6.82-2.19c-1.6-.5-6.82-.4-3.41-1.79 1.1-.4 6.72.1 3.4 1.8Zm2-2.98c-.5-1.1.4-2.4 1.7-1.4 1.21.8-.6 2-1.7 1.4Zm-2.9.1c-2.31.7-5.32-.8-1.6-1.5 2.3-.5 4.7.5 1.6 1.5.1 0-.1 0 0 0Zm-2.61-6.17c-.5 1.59-1.5 1.89-1.4 0 .1-2.3 1.6-1.7 3.2-2.59 1.3-.7 2-3.38 4.32-1.8 1 .7 2.2.1 2.5 1.2 0-.1-2.9 6.67-1.3 6.67-3.21 0-1.8-3.78-.6-6.37-1.2.6-3.11 4.28-1.5 4.98-.8 1.1-3.42 2.58-4.72 1.49-1.1-1-.5-2.29-.5-3.58Zm-4.01 2.78c-5.62 0-1.8-8.55.1-8.06 2.2.7 1.9 8.16-.1 8.06Zm-6.22-8.16c-2.6-.1-1.5-2.58.3-3.08 1.7-.5 5.21 1.1 6.42 2.19-1.8.6-4.11.5-6.12.6-.2-2-.7-1.3-.6.3Z" fill="#DC6243"/><path d="M72 25.67c-2.9-2.99 4.32-2.69 5.52-3.78.8.3 7.02-5.37 8.52-4.98-1.1 1.3-3.4 5.28-5.01 5.28-1.3 0-2.6-.2-3.61.7-1.5 1.39-3.91 2.08-5.42 2.78Z" fill="#F49774"/><path d="M72.9 22.09c-1.6.9-3.1-2.49-.3-2.2 1.81.2 3.72-.2 5.42.1a5.9 5.9 0 0 1-5.11 2.1Z" fill="#F4B1A4"/></svg>