<svg width="139" height="70" viewBox="0 0 139 70" fill="none" xmlns="http://www.w3.org/2000/svg">
<path d="M139 0H0L59.9312 65.6531C65.1688 71.449 73.8312 71.449 79.0688 65.6531L139 0Z" fill="#81B3D3"/>
<path d="M36.804 0.497559L68.9951 38.2043L101.086 0.696539L36.804 0.497559Z" fill="#23A9E1"/>
<path d="M61.2734 14.6249H78.6225C77.3188 13.829 74.21 10.0483 72.6055 11.4412C72.5052 11.5407 67.6916 5.77026 64.5828 8.55598C61.8751 11.0432 60.5714 8.25751 57.5629 10.1478C53.9527 12.5356 59.5686 13.829 61.2734 14.6249ZM88.0492 11.1427L78.2214 11.2422C82.1324 6.76516 83.8373 7.26261 88.0492 11.1427Z" fill="white"/>
<path d="M97.8768 3.58164V1.19388H99.9827L97.8768 3.58164ZM48.5371 12.9337C48.6374 13.0332 50.9439 10.5459 54.6544 8.0587C58.0641 5.77043 63.2788 3.18368 69.0953 3.18368C74.9118 3.18368 80.2268 5.86992 83.6365 8.15819C87.347 10.5459 89.6535 12.9337 89.7538 13.0332L87.2467 16.0179C82.7339 16.6148 79.5248 19.898 75.1123 19.2016C72.9061 18.8036 72.8058 17.6097 72.2041 16.3164C71.7027 15.3215 70.9004 15.5205 69.8976 15.1225C68.995 14.7245 68.3933 14.0281 66.4879 14.4261C64.8834 14.824 64.6828 17.3113 62.5769 17.2118C61.4737 17.1123 61.3734 15.6199 59.7689 13.6301C55.6573 8.75513 51.8465 9.45156 49.2391 13.9286L68.8947 37.1098L48.5371 12.9337ZM40.1133 1.19388V3.08419L38.5087 1.19388H40.1133ZM94.1663 1.19388H97.3753V4.17858L94.1663 7.95921V1.19388ZM90.0546 12.5358V1.19388H93.5646V8.55615L90.0546 12.5358C90.1549 12.5358 90.0546 12.5358 90.0546 12.5358ZM89.5532 2.18878V12.0383C88.4501 10.9439 87.2467 9.94901 85.943 9.0536L89.5532 2.18878ZM85.4416 1.89031V8.65564C84.9401 8.35717 84.539 7.95921 83.9373 7.66074C83.2353 7.26278 82.5333 6.76533 81.7311 6.36737L85.4416 1.89031ZM81.0291 1.69133V5.96941C80.0262 5.47195 78.9231 4.9745 77.9203 4.47705L81.0291 1.69133ZM81.6308 1.19388H85.3413L81.6308 5.77043V1.19388ZM85.943 1.19388H89.5532L85.943 8.25768V1.19388ZM77.118 1.19388H81.0291L77.5191 4.27807C77.4189 4.27807 77.3186 4.17858 77.2183 4.17858L77.118 1.19388ZM76.6166 1.59184V3.9796C75.6138 3.58164 74.6109 3.28317 73.5078 3.08419L76.6166 1.59184ZM72.4047 1.59184V2.88521C71.7027 2.78572 71.0007 2.68623 70.1984 2.58674L72.4047 1.59184ZM65.5854 1.59184L67.7916 2.58674C66.9893 2.58674 66.2874 2.68623 65.5854 2.88521V1.59184ZM61.4737 1.59184L64.5825 3.08419C63.4794 3.28317 62.4766 3.58164 61.4737 3.9796V1.59184ZM65.084 2.78572L61.7746 1.19388H65.084V2.78572ZM68.5939 2.38776L65.7859 1.09439H68.5939V2.38776ZM69.2959 1.19388H72.2041L69.2959 2.48725V1.19388ZM73.0064 1.19388H76.2155L73.0064 2.78572V1.19388ZM60.5712 4.27807L57.0612 1.19388H60.9723V4.17858L60.5712 4.27807ZM56.961 1.69133L60.0698 4.37756C58.9666 4.77552 57.9638 5.27297 56.961 5.86992V1.69133ZM52.6488 1.89031L56.259 6.36737C54.9553 7.0638 53.7519 7.85972 52.6488 8.75513V1.89031ZM48.4368 2.18878L52.0471 9.15309C50.7434 10.148 49.54 11.1429 48.4368 12.3368V2.18878ZM52.1473 8.15819L48.5371 1.09439H52.1473V8.15819ZM56.4595 5.67093L52.749 1.09439H56.4595V5.67093ZM43.8238 7.46176L40.6147 3.68113V1.19388H43.8238V7.46176ZM44.4255 1.19388H47.9354V12.3368L44.4255 8.15819V1.19388ZM69.2959 0H36.1019V14.5256L68.995 54.2221L69.1956 53.9236L102.289 14.9235V0H69.2959Z" fill="#491213"/>
<path d="M66.3877 45.7655L68.9951 41.5869L71.6025 45.7655L68.9951 49.9441L66.3877 45.7655Z" fill="#23A9E1"/>
<path d="M74.4106 30.444C71.001 28.4542 71.8033 26.9619 74.6112 25.569C76.1155 24.8726 79.4248 22.1863 80.7285 23.0818L74.4106 30.444ZM72.1041 32.9313C70.0984 32.8318 67.7919 32.5333 65.7862 33.0308C66.9896 33.3292 69.9981 34.2246 67.1902 34.9211C68.193 36.3139 69.7976 36.2144 70.8004 35.0206C70.3993 34.8216 70.0984 34.5231 69.7976 34.3241C70.9007 34.0257 71.9035 33.4287 72.1041 32.9313ZM73.3075 31.3394C72.405 30.5435 71.4021 30.5435 70.5998 31.3394C69.3964 29.2501 65.1845 29.9466 63.1788 29.6481C64.282 32.2348 72.8061 32.7323 73.3075 31.3394ZM66.4882 29.1507C64.8837 28.6532 59.6689 28.7527 63.0786 27.3598C64.1817 26.9619 69.7976 27.4593 66.4882 29.1507ZM68.4939 26.1659C67.9925 25.0716 68.895 23.7782 70.1987 24.7731C71.4021 25.569 69.597 26.7629 68.4939 26.1659ZM65.5857 26.2654C63.2791 26.9619 60.2706 25.4695 63.9811 24.7731C66.2876 24.2756 68.6945 25.2705 65.5857 26.2654C65.6859 26.2654 65.4854 26.2654 65.5857 26.2654ZM62.9783 20.0971C62.4769 21.6889 61.474 21.9874 61.5743 20.0971C61.6746 17.8088 63.1788 18.4057 64.7834 17.5103C66.0871 16.8139 66.7891 14.1276 69.0956 15.7195C70.0984 16.4159 71.3018 15.819 71.6027 16.9134C71.6027 16.8139 68.6945 23.5792 70.299 23.5792C67.0899 23.5792 68.4939 19.7986 69.6973 17.2118C68.4939 17.8088 66.5885 21.4899 68.193 22.1863C67.3908 23.2807 64.7834 24.7731 63.4797 23.6787C62.3766 22.6838 62.9783 21.3904 62.9783 20.0971ZM58.9669 22.8828C53.351 22.8828 57.1618 14.3266 59.0672 14.8241C61.2735 15.5205 60.9726 22.9823 58.9669 22.8828ZM52.7493 14.7246C50.1419 14.6251 51.2451 12.1378 53.0502 11.6404C54.755 11.1429 58.2649 12.7348 59.4683 13.8292C57.6632 14.4261 55.3567 14.3266 53.351 14.4261C53.1505 12.4363 52.649 13.1327 52.7493 14.7246Z" fill="#DC6243"/>
<path d="M72.0039 25.6685C69.0957 22.6838 76.3161 22.9822 77.5195 21.8878C78.3218 22.1863 84.5394 16.5154 86.0437 16.9133C84.9406 18.2067 82.634 22.1863 81.0295 22.1863C79.7258 22.1863 78.4221 21.9873 77.4193 22.8827C75.915 24.2756 73.5082 24.972 72.0039 25.6685Z" fill="#F49774"/>
<path d="M72.906 22.0869C71.3015 22.9823 69.7972 19.5996 72.6052 19.8981C74.4103 20.0971 76.3157 19.6991 78.0205 19.9976C76.7168 21.49 74.9117 22.2859 72.906 22.0869Z" fill="#F4B1A4"/>
<path d="M51.2452 20.7936C51.546 21.1916 51.8469 21.5895 51.7466 22.1865C51.7466 22.5844 51.1449 23.1814 51.546 23.3803L53.0503 21.5895C52.6492 21.49 49.5404 17.8089 49.5404 17.4109L47.4344 18.5053C47.5347 18.9033 48.2367 18.5053 48.6378 18.5053C49.1392 18.5053 49.5404 18.9033 49.9415 19.2018C48.8384 20.0972 46.1307 22.4849 45.8299 22.4849C45.7296 22.4849 45.1279 22.087 45.1279 22.4849C45.1279 22.6839 45.7296 23.1814 45.8299 23.2808L47.2338 24.9722C47.635 24.7732 47.1336 24.4747 47.3341 24.1763C47.4344 23.9773 50.5432 21.49 51.2452 20.7936ZM47.8355 16.3165C48.1364 16.2171 48.2367 16.615 48.4372 16.3165L46.8327 14.4262C46.6321 14.1278 46.3313 13.8293 46.3313 14.4262C46.4316 14.8242 42.3199 18.1074 42.1194 18.2069C41.8185 18.3063 41.6179 17.9084 41.4174 18.3063C41.9188 18.9033 42.3199 19.4007 42.8214 19.9977C43.0219 20.1967 43.1222 20.3956 43.3228 20.5946C43.5233 20.7936 43.4231 20.1967 43.4231 20.1967C43.3228 19.8982 43.7239 19.5997 44.0248 19.4007C45.0276 18.4058 47.5347 16.3165 47.8355 16.3165ZM42.1194 15.7196C41.0162 16.0181 39.7126 15.6201 39.4117 14.4262C39.0106 13.2323 39.8128 12.0385 40.7154 11.342C41.6179 10.6456 43.0219 10.7451 43.5233 11.8395C43.7239 12.3369 43.6236 12.9339 43.4231 13.4313C43.3228 13.7298 43.0219 14.0283 43.4231 14.2273C44.0248 13.5308 44.5262 12.8344 45.1279 12.138C44.4259 11.74 44.125 11.0436 43.6236 10.4466C43.0219 9.7502 42.3199 9.05377 41.3171 8.95428C39.4117 8.6558 37.7069 10.6456 37.5063 12.3369C37.406 13.2323 37.7069 14.1278 38.3086 14.9237C38.81 15.5206 39.512 16.0181 39.9131 16.7145C40.1137 16.814 41.7182 16.0181 42.0191 15.9186C42.2196 15.9186 42.1194 15.8191 42.1194 15.7196C41.6179 15.9186 42.1194 15.7196 42.1194 15.7196ZM67.6917 39.1993C66.9898 38.7018 65.0844 36.2146 64.6832 35.7171L64.4827 35.4186L64.2821 35.5181C64.1818 35.6176 64.3824 35.9161 64.2821 36.1151C63.7807 36.911 60.5716 39.2988 60.371 39.4977C59.9699 39.6967 59.5687 39.3982 59.3682 39.6967C59.8696 40.2937 61.1733 41.985 61.3739 41.985C61.6747 41.985 61.4741 41.4875 61.4741 41.388C61.5744 41.1891 63.179 39.7962 63.7807 39.2988C63.9812 39.0998 64.1818 39.5972 64.3824 39.7962C64.5829 40.0947 64.6832 40.4926 64.5829 40.7911C64.4827 40.9901 64.0815 41.388 64.3824 41.587C64.7835 41.0896 65.8866 39.7962 66.0872 39.5972C66.2878 39.3982 65.6861 39.5972 65.7863 39.4977C65.5858 39.5972 65.2849 39.6967 65.0844 39.4977C64.9841 39.4977 64.3824 38.8013 64.4827 38.7018C64.7835 38.5028 65.0844 38.1049 65.4855 38.0054C66.0872 37.9059 66.4883 39.0003 66.5886 39.3982C66.6889 39.7962 66.6889 40.1942 66.4883 40.4926C66.3881 40.7911 66.1875 40.9901 66.4883 41.0896L67.8923 39.1993C67.8923 39.2988 67.792 39.2988 67.6917 39.1993C67.5915 39.1993 67.792 39.2988 67.6917 39.1993ZM58.4656 30.3446C57.7636 30.3446 57.0617 30.6431 56.4599 31.1406C55.056 32.3344 54.8554 34.4237 55.9585 35.9161C57.2622 37.6074 59.3682 37.8064 61.073 36.6125C62.477 35.4186 62.6775 33.3293 61.5744 31.837C60.7722 30.8421 59.5687 30.3446 58.4656 30.3446ZM59.669 31.7375C60.5716 31.638 61.1733 32.5334 60.7722 33.5283C60.371 34.5232 59.3682 35.5181 58.3653 35.9161C57.1619 36.4135 56.3597 35.4186 56.8611 34.2248C57.2622 33.2299 58.2651 32.235 59.2679 31.837C59.3682 31.837 59.4685 31.7375 59.669 31.7375ZM56.8611 27.161C57.1619 27.161 57.4628 27.5589 57.6634 27.161L56.2594 25.4696C55.8582 25.6686 56.2594 25.8676 56.1591 26.0666C55.9585 26.365 54.4543 26.564 54.0531 26.6635C54.1534 26.2655 54.6548 24.9722 54.8554 24.8727C55.2565 24.5742 55.4571 25.1712 55.6577 24.7732L53.8526 22.6839C53.652 22.4849 53.4514 21.9875 53.2509 22.2859C53.2509 22.2859 53.2509 23.2808 53.1506 23.3803C53.0503 23.5793 52.5489 25.7681 51.9472 26.2655C51.6463 26.564 50.4429 27.5589 50.1421 27.6584C49.8412 27.7579 49.6407 27.2605 49.3398 27.6584L50.9443 29.5487C51.0446 29.6482 51.3455 30.1457 51.4458 30.1457C51.7466 30.2452 51.4458 29.5487 51.546 29.4492C51.6463 29.1508 53.1506 27.6584 53.8526 27.5589C54.7551 27.3599 55.8582 27.0615 56.8611 27.161C57.0617 27.161 56.6605 27.161 56.8611 27.161ZM81.1298 33.8268C81.2301 34.2248 81.3303 34.7222 81.2301 35.1202C81.1298 35.7171 80.6284 37.0105 79.8261 36.6125C79.0238 36.2146 78.4221 35.5181 77.7201 34.9212C78.2215 34.3242 78.723 33.8268 79.6255 34.1253C79.8261 34.2248 80.0266 34.1253 79.8261 33.9263C79.5252 33.7273 77.8204 32.6329 77.7201 32.7324C77.5196 32.9314 78.021 33.3293 77.8204 33.7273C77.7201 34.0258 77.4193 34.2248 77.2187 34.5232C76.7173 34.1253 76.0153 33.7273 76.5167 33.0309C76.9179 32.6329 77.319 32.235 77.9207 32.1355C78.3218 32.036 79.1241 32.4339 79.2244 32.036C78.5224 31.7375 77.8204 31.3395 77.1184 31.0411C77.2187 31.5385 74.9122 33.9263 74.4108 34.5232C74.3105 34.6227 74.0096 34.9212 74.0096 35.0207C74.0096 35.3191 74.4108 35.1202 74.4108 35.1202C74.7116 35.0207 78.8232 38.4033 78.9235 38.7018C79.0238 38.9008 78.8232 39.0998 78.9235 39.1993C78.9235 39.1993 79.0238 39.2988 79.1241 39.2988C79.4249 39.0003 82.0323 35.4186 82.634 35.3191C82.1326 34.5232 81.6312 33.7273 81.1298 32.9314C80.7286 33.1304 81.0295 33.6278 81.1298 33.8268ZM77.1184 38.2044C75.8147 37.309 73.5082 39.0003 73.1071 39.1993C72.4051 39.4977 71.9037 38.8013 72.3048 38.2044C72.6056 37.7069 73.2073 37.4084 73.8091 37.4084C74.0096 37.4084 74.7116 37.5079 74.7116 37.4084C74.8119 37.3089 74.8119 37.309 74.7116 37.2095C74.1099 36.8115 73.6085 36.4135 73.0068 36.1151C72.9065 36.8115 72.1042 37.2095 71.7031 37.7069C71.2017 38.3039 70.7003 39.0003 70.7003 39.6967C70.7003 40.3931 71.1014 41.0896 71.8034 41.388C72.5054 41.786 73.3076 41.4875 74.0096 41.0896C74.4108 40.7911 74.8119 40.4926 75.213 40.2937C75.8147 39.9952 76.7173 40.2937 76.5167 41.0896C76.3162 41.786 75.6142 42.3829 74.9122 42.5819C74.511 42.6814 74.1099 42.6814 73.7088 42.4824C73.4079 42.3829 73.1071 41.985 72.9065 42.3829L75.213 43.9748C75.3133 43.4773 75.5139 43.2784 75.915 42.9799C76.4164 42.5819 76.8176 42.0845 77.2187 41.587C78.021 40.6916 78.3218 39.0998 77.1184 38.2044ZM94.7684 10.2476C94.7684 10.3471 94.7684 10.3471 94.7684 10.2476L93.8658 11.2425L93.0635 12.2374C92.863 12.4364 92.7627 12.5359 93.0635 12.7349C93.565 12.4364 96.5735 17.5104 96.3729 18.2069C95.8715 18.4058 91.8601 14.9237 91.7599 14.7247C91.7599 14.6252 91.9604 14.0283 91.6596 14.1278C91.5593 14.1278 91.1582 14.7247 91.0579 14.8242L90.4562 15.5206C90.6567 15.8191 90.757 15.5206 91.0579 15.5206C91.2584 15.6201 92.2613 16.416 92.5621 16.615C92.0607 16.615 90.8573 16.7145 90.6567 16.7145C90.055 16.814 90.3559 16.3165 89.9547 16.1176L88.4505 17.9084L87.5479 18.9033C87.5479 18.9033 87.5479 18.9033 87.5479 19.0028C87.7485 19.2018 87.6482 19.1023 87.9491 19.0028C88.2499 18.9033 92.2613 22.1865 92.3616 22.3854C92.5621 22.6839 92.2613 22.9824 92.6624 23.1814L93.8658 21.7885C93.9661 21.689 93.9661 21.689 93.8658 21.689C93.565 21.49 93.565 21.7885 93.1638 21.7885C92.863 21.689 90.2556 19.5997 89.353 18.8038L94.6681 18.6048C94.8687 18.6048 95.3701 19.2018 95.3701 19.4007C95.2698 19.5997 95.0692 19.7987 95.3701 19.8982C95.6709 19.5002 95.9718 19.2018 96.2726 18.8038L96.3729 18.6048C96.4732 18.6048 96.4732 18.5053 96.4732 18.4058L96.5735 18.3063C96.8743 18.0079 97.7769 17.013 97.6766 16.9135C97.3758 16.615 97.2755 17.212 96.8743 16.9135C96.6738 16.7145 96.0721 15.7196 95.9718 15.5206C95.7712 15.2222 96.3729 14.9237 96.5735 14.8242C97.0749 14.5257 98.6794 14.0283 98.88 15.0232C98.88 15.2222 98.6794 15.4211 98.7797 15.5206C98.7797 15.5206 98.88 15.7196 98.9803 15.6201L101.086 13.0334C100.986 12.9339 100.986 12.9339 100.886 12.8344C100.384 13.3318 95.3701 11.342 95.0692 11.0436C94.9689 10.8446 94.9689 10.2476 94.7684 10.2476ZM94.5678 12.8344C95.3701 13.1329 96.0721 13.4313 96.8743 13.8293C96.6738 13.9288 96.4732 14.0283 96.2726 14.1278C96.0721 14.2272 95.8715 14.4262 95.6709 14.6252L94.5678 12.8344ZM87.9491 20.4951C86.8459 20.3956 85.7428 20.8931 84.9406 21.7885C83.7371 23.2808 83.8374 25.4696 85.3417 26.6635C86.8459 27.8574 89.0522 27.5589 90.2556 26.1661C91.459 24.6737 91.3587 22.4849 89.8545 21.291C89.353 20.8931 88.6511 20.5946 87.9491 20.4951ZM86.5451 22.087C87.1468 22.087 87.8488 22.4849 88.2499 22.7834C89.0522 23.2808 90.4562 24.4747 89.7542 25.4696C89.7542 25.3701 89.8545 25.3701 89.6539 25.5691C88.8516 26.365 87.4477 25.6686 86.7457 25.0717C86.0437 24.5742 84.74 23.3803 85.5423 22.3854C85.8431 22.1865 86.144 22.087 86.5451 22.087ZM83.4363 26.365C82.2329 26.2655 81.0295 26.8625 80.1269 27.9569C79.5252 28.7528 78.8232 29.4492 78.2215 30.2452C78.4221 30.5436 78.723 30.1457 79.0238 30.3446C79.3247 30.5436 83.1355 33.6278 83.1355 33.8268C83.2357 34.1253 82.9349 34.2248 83.2357 34.4237C83.336 34.5232 86.144 31.0411 86.4448 30.4441C86.8459 29.3497 86.5451 28.0564 85.6425 27.2605C85.7428 27.3599 85.8431 27.3599 85.6425 27.2605C84.8403 26.6635 84.1383 26.365 83.4363 26.365ZM82.3332 27.9569C82.4335 27.9569 82.5337 27.9569 82.634 27.9569C84.038 28.3548 86.0437 30.0462 84.74 31.5385C84.5394 31.7375 84.74 31.5385 84.3389 31.9365C84.1383 32.1355 80.1269 28.9518 80.3275 28.7528C80.7286 28.2554 81.6312 27.8574 82.3332 27.9569Z" fill="white"/>
</svg>
